<svg xmlns="http://www.w3.org/2000/svg" viewBox="0 0 1447.97 664.33">
<defs>
<style>
<!-- {fill: #dde7cf;} -->
</style>
</defs>
<title>Ресурс 1</title>
<path class="a" d="M617.3,638.42a18.06,18.06,0,0,0-4.55-5.1,31.28,31.28,0,0,0-5.79-3.59c-2.21-1.1-4.13-2.06-5.93-2.89a19.39,19.39,0,0,1-4.41-3,4.46,4.46,0,0,1-1.79-3.73,7.07,7.07,0,0,1,1.65-4.82,7.74,7.74,0,0,1,4.14-2.34,8,8,0,0,1,4.68.55,7.65,7.65,0,0,1,3.87,4.13l8.54-4a18.84,18.84,0,0,0-6.2-7.58,17.14,17.14,0,0,0-9.51-2.76,14.09,14.09,0,0,0-6.34,1.38,15.23,15.23,0,0,0-5.24,3.72,16.32,16.32,0,0,0-3.44,5.24,16.65,16.65,0,0,0-1.25,6.47,13.37,13.37,0,0,0,1.79,7.31,17.24,17.24,0,0,0,4.28,5.1,34.78,34.78,0,0,0,5.65,3.58c2.07,1,4,1.93,5.79,2.9a21.15,21.15,0,0,1,4.27,3,4.88,4.88,0,0,1,1.79,3.86,6.4,6.4,0,0,1-1.1,3.45,9.61,9.61,0,0,1-2.76,2.48,9.85,9.85,0,0,1-11.71-1.24A10.23,10.23,0,0,1,591,646l-8.27,3.72a18.88,18.88,0,0,0,6.48,9.37,16.84,16.84,0,0,0,10.75,3.58,26,26,0,0,0,7.3-1.1,23.42,23.42,0,0,0,6.07-3.31,15.51,15.51,0,0,0,4.14-5.23,14.94,14.94,0,0,0,1.65-7.17A15.61,15.61,0,0,0,617.3,638.42Z"/>
<path class="a" d="M729.22,651.37a22.23,22.23,0,0,1-7.45,1.38,20.34,20.34,0,0,1-7.71-1.51,22.2,22.2,0,0,1-6.34-4.28,20.71,20.71,0,0,1-4.28-6.34,20.17,20.17,0,0,1-1.51-7.58,20.39,20.39,0,0,1,1.51-7.72,20.71,20.71,0,0,1,4.28-6.34,22.17,22.17,0,0,1,6.34-4.27,20.34,20.34,0,0,1,7.71-1.52,22.48,22.48,0,0,1,7.45,1.38,19.54,19.54,0,0,1,6.34,4.14l7-7a32.32,32.32,0,0,0-9.5-6.21,30,30,0,0,0-22.89.14,31.86,31.86,0,0,0-9.5,6.34,29.57,29.57,0,0,0-6.35,9.37A30.79,30.79,0,0,0,692,633a29.36,29.36,0,0,0,2.34,11.44,30.09,30.09,0,0,0,6.35,9.51,31.68,31.68,0,0,0,9.5,6.34,29.43,29.43,0,0,0,11.58,2.34,29,29,0,0,0,11.31-2.2,32.28,32.28,0,0,0,9.5-6.2l-7-7A19.35,19.35,0,0,1,729.22,651.37Z"/>
<path class="a" d="M656.78,623.85v-7h3.38V604.09h-9.79v57.76h9.79v-38Z"/>
<path class="a" d="M904.3,601.75,878,661.85h10.61L893,652.2h22.6l4.27,9.65h10.75Zm-4.25,15.15h7v7h-7Zm-2.79,25.52,7-16.27,7,16.27Z"/>
<path class="a" d="M1137.63,627.18c-1.05.9-2.57,1.44-3.1.91a1.61,1.61,0,0,1,.14-2.35,7.41,7.41,0,1,0,3,1.44Z"/>
<path class="a" d="M358.38,635.18a7.46,7.46,0,0,0,3.08,4c.38-.06.78-.11,1.18-.14C363.19,635.82,361,635.26,358.38,635.18Z"/>
<path class="a" d="M365.48,625.54A7.38,7.38,0,0,0,360,628c4.43.1,8.08,8,6.36,12.37a7.43,7.43,0,0,0-.86-14.81Z"/>
<path class="a" d="M1070.11,621.74a32,32,0,0,0-6.2-9.24,28.82,28.82,0,0,0-9.24-6.2,30,30,0,0,0-11.3-2.21h-16.81V662h16.81a27.5,27.5,0,0,0,11.3-2.21,28.51,28.51,0,0,0,6.25-3.64c-2.73-1.77-3.82-5.19-3.8-9.71l-.1.12a18.23,18.23,0,0,1-6.07,4.13,20,20,0,0,1-4.69,1.29c2.42,1.85,3.85,4.67,3.73,9.09-4-1.41-6.82-4-7.29-8.86h-6.36V613.88h7a19.46,19.46,0,0,1,7.58,1.52,18.23,18.23,0,0,1,6.07,4.13,21.46,21.46,0,0,1,4.13,6.07,19.08,19.08,0,0,1,0,14.88,23.18,23.18,0,0,1-2.51,4.17c2.18,2.41,5.55,3.64,7.7,6.08a31.68,31.68,0,0,0,3.77-6.39,30.12,30.12,0,0,0,0-22.6Z"/>
<path class="a" d="M476.59,631.76c.83-.6,1.5-1,2.05-1.4V605.72a15.25,15.25,0,0,0-2.05.38,2.7,2.7,0,0,1,2.05-2.68v-1.67l-27.43,37.63-27.57-37.63v60.1h9.23c.28-3.12-.21-5.47-4.07-4.47,1.45-2.74,3.07-3.79,4.63-3.7v-22l17.78,23,17.64-23v30.19h9.79v-29.6C475.9,635.16,471.71,638.5,476.59,631.76Zm-51.46,0c-1.89-1.93,2.66-4.71,3.67-3.67C430.71,630,426.15,632.76,425.13,631.76Zm47.78-18.34c.7-4.18,3.69-2,3.68,0C475.89,617.59,472.91,615.45,472.91,613.42Z"/>
<path class="a" d="M550.1,620.73a26.89,26.89,0,0,1,3.66,0v-16.6H544v35.7a12.72,12.72,0,0,1-1.1,5.11,12.13,12.13,0,0,1-2.76,4.13,14.14,14.14,0,0,1-4.13,2.9,14.05,14.05,0,0,1-10.21,0,14.14,14.14,0,0,1-4.13-2.9,12.34,12.34,0,0,1-2.89-4.13,12.48,12.48,0,0,1-1-5.11V622.54a2.7,2.7,0,0,1-.76-1.81,3.87,3.87,0,0,1,.76-1.9V604.09H508v35.7a21.6,21.6,0,0,0,1.8,9,22.66,22.66,0,0,0,4.42,6.6c1.14-1.07,2.82.49,2.81,2,0,.18-.07.33-.11.49a23.88,23.88,0,0,0,5,3,21.66,21.66,0,0,0,9,1.79,20.76,20.76,0,0,0,6.62-1,24.3,24.3,0,0,0,6.06-2.89,21,21,0,0,0,4.83-4.41,17.7,17.7,0,0,0,3.45-5.8,21.28,21.28,0,0,0,1.93-8.82V635.4C548.8,634.23,550.73,626.22,550.1,620.73Z"/>
<path class="a" d="M553.76,632.65a6.52,6.52,0,0,0,0,2.64Z"/>
<path class="a" d="M854.54,637a19,19,0,0,0-5.38-6.07,18.84,18.84,0,0,0,2.35-4.68,18.54,18.54,0,0,0,1-5.38,17.79,17.79,0,0,0-1.37-6.48,17,17,0,0,0-9.1-9.09,16.45,16.45,0,0,0-6.48-1.25H815.81v57.76h23.84a16.61,16.61,0,0,0,6.12-1.11,12.55,12.55,0,0,0-1.62.32c.1-3.35,4-2.9,6.8-3.53l.7-.64a16.15,16.15,0,0,0,3.58-5.38,16.43,16.43,0,0,0,1.38-6.48A16.16,16.16,0,0,0,854.54,637Zm-29.09-23.29h10.07a8.53,8.53,0,0,1,5.1,2.2,8.88,8.88,0,0,1,1.51,2.2,9.73,9.73,0,0,1,.55,2.76,8.1,8.1,0,0,1-.55,2.76,9.82,9.82,0,0,1-1.51,2.34,8.68,8.68,0,0,1-2.35,1.52,6.18,6.18,0,0,1-2.75.55H825.45Zm20.82,34a6.63,6.63,0,0,1-1.66,2.2,2.7,2.7,0,0,1-.28.31c1.34,1.88-2.89,4.4-3.85,3.44a1.39,1.39,0,0,1-.34-1.57c-.16,0-.32,0-.49,0h-14.2V637.87h14.2a6.48,6.48,0,0,1,2.76.55,8.88,8.88,0,0,1,2.2,1.51,7.2,7.2,0,0,1,1.66,2.34,7.2,7.2,0,0,1,0,5.52Zm1.56-30.69c-4.53-1.61-7.57-4.72-7.35-11C845,607.67,848,610.78,847.83,617.1Z"/>
<path class="a" d="M955.09,328.41l1.65-1A2,2,0,0,0,955.09,328.41Z"/>
<path class="a" d="M1447,213.93c-1-1-.24-2.21.87-3-.67-16-3.7-32.29-10.2-47.21-21.26-48.76-75-40-75-40s-18.34-2.5-15.42,9.17,10.42,10.42,10.42,10.42,13.34-1.67,32.92,8.33c55.43,32.51-32.5,139.2-32.5,139.2s-50.43,65.43-103.78,86.69c-11.39,4.54-20.93,5.7-29,4.92a.28.28,0,0,0-.09-.19,22.78,22.78,0,0,1-3.15-.44c-.71-.13-1.38-.3-2.06-.45-9-2.62-11.94-10.49-12.85-17.15a39.9,39.9,0,0,1-.39-11c.65-8,2.61-18.06,5.46-29.1a.75.75,0,0,1-.4-.19c-1.12-1.12,0-2.54,1.32-3.31,11.85-43.91,36.66-101.72,49.75-114.61-.56-1.81,3.14-3.93,4.06-3a1.56,1.56,0,0,1,.3.42l.15,0c2.13,0,4.65-3.18,4.65-6.76,0-15.53-50.69-38.62-62.11-38.62-20.44,0-77.9,71.92-115.06,135.36,1.17-3.13,2.37-6.32,3.6-9.54a.81.81,0,0,1-.61-.21c-1.33-1.34.53-3.12,2.11-3.7,35.64-92.8,92.65-216.14,107.58-216.14,2.12,0,3.85-2.12,3.85-4.51,0-11.42-40.75-31.19-62-31.19-3.93,0-9.15,4.89-15.24,13.45a.81.81,0,0,1,.45.2c1.68,1.68-1.75,4.07-3.23,3.86-19.49,29.59-46.74,92.28-70.26,153.76,1,1.08,0,2.43-1.22,3.21-4.44,11.66-8.74,23.25-12.82,34.54-1.38,4-2.69,7.7-4.06,11.62-12.61,8.22-28,18-44.54,28.15-.51,1.93-1.6,2.08-2.44,1.5-10,6.15-20.45,12.43-30.9,18.6a2.56,2.56,0,0,1,.39,1.3c-.65,3.77-3.12,2.39-3.59.59-10.05,5.91-20.09,11.7-29.8,17.14-7.08-12.12-12.39-22.73-12.39-29.81,0-9.6,10.13-24,23.48-37.34a4.13,4.13,0,0,1,1.52-1.5c17.51-17.07,39.93-32,52.46-32,6.72,0,13.9,4.38,14.86,9.81.39-.06.8-.13,1.24-.24a3.88,3.88,0,0,1-1.1,2.11,5.49,5.49,0,0,0,5.28,5.34c3.81,0,8.44-4,8.44-14.57,0-30.76-40-56.22-64-56.22-14.76,0-34.07,9.56-52.23,23.39,7.77,2.13,6.36,13.42,8,21.63-4.3-5.84-11.18-9.08-11.18-19.18C880.72,207.91,858,236.53,855,257.83l-.13.21.3-.12c-5.07,10.83-7.71,24.09-14.7,33-1.83-3.29-1-7.32.63-11.86-21.27,31.3-55.06,76.33-87.44,103.78.89-.5,1.86-.7,2.27-.3,1.91,1.89-2.66,4.68-3.68,3.66a1.53,1.53,0,0,1,0-2.19c-11.52,9.6-22.83,16.9-33.3,20.51a35.31,35.31,0,0,1,3.89,7.34c-1.22,7.1-5.27-.39-6.8-6.43a39.55,39.55,0,0,1-10.65,1.6,26.73,26.73,0,0,1-8.6-1.35c-1,2.52-3.38.65-3.36-1.16l.06-.25c-9.29-4.83-14.78-15.81-14.78-31.27,0-2.28.12-4.6.35-6.94-1-1.47-.54-3.52.69-5.35C687.67,312,738.92,253,775.51,249a78.91,78.91,0,0,1-8.1,24.8,2.35,2.35,0,0,1-.64,1.21,103.13,103.13,0,0,1-25.54,30.53v0c-.42,2.52-1.69,2.72-2.62,2a103.05,103.05,0,0,1-15.31,9.82c.2,1.76-3.25,3.67-4.12,2.8a1.47,1.47,0,0,1-.38-.62c-7.53,3.38-14.61,5.2-20.33,5.2-4.77,0-7.22,1.09-7.22,2.58,0,4.64,20.37,14.82,34.89,15.36a2.27,2.27,0,0,1,.39-.53c2.25-2.24,3.83-1.25,4.33.35,25-2.72,66-32.89,77.61-71.71-1.13-.68-2.59-2.14-4.75-1.94a3.82,3.82,0,0,1,5.93-2.48,71.56,71.56,0,0,0,1.94-16.36c0-29.68-37.17-57.31-69.7-57.31-34.39,0-73.65,31-100,69.94a16,16,0,0,1,.12,2.55c-.5-.18-1-.38-1.43-.59a208.69,208.69,0,0,0-11.79,20.12c-4.73,4.7-10.06,9.89-15.51,15.11a22.65,22.65,0,0,1,3,5.67c1,3.34-2,1.57-5.23-3.54-18.24,17.39-37.27,34.48-40.12,34.48-.68,0-1.08-1.08-1.08-3.94,0-20.83,17.83-63.17,30.63-63.17,4.08,0,7.62-4.48,7.62-8.84,0-16.34-51.73-40.16-64.25-40.16-7.47,0-19.62,9.28-33.91,24.15,4,2.81,3.85,9.79,3.42,17-9.72,3-7.68-5.81-7.17-13.06-24.64,26.61-54.72,68.16-78.05,107.05,18.65-50.09,42.74-100.05,50.09-100.05,1.09,0,2.59-1.91,2.59-4.08,0-13.48-48.33-31-65.07-31-13.51,0-49.39,90.11-68.13,149.9a2.59,2.59,0,0,1,.34,1.23c-.26,1.56-.84,2.24-1.46,2.37-1.36,4.42-2.62,8.66-3.77,12.66,9.48,2.43.16,13.6-2.15,7.78-3,11.25-4.74,19.89-4.74,24.4a18.61,18.61,0,0,0,.68,4.89c-.89-10.27,6.55-9.32,4.09,2.88a27.19,27.19,0,0,1-2.18,1.93c7.78,14.88,31.49,27.63,48.39,33.51a4.38,4.38,0,0,0,1.57-2.45c5.1,1.38,6.29,2.79,6.08,4.77a33.23,33.23,0,0,0,7.4,1.16c4.08,0,6.67-1.91,6.67-7.76,0-17.57,24.16-64.5,55.3-111.92-.79.37-1.58.49-1.94.14-1.89-1.91,2.67-4.69,3.68-3.67a1.5,1.5,0,0,1,.31.43c6.85-10.33,14-20.65,21.31-30.67a3,3,0,0,1,1.72-2.36c5.16-7,10.37-13.89,15.58-20.48a96.9,96.9,0,0,0-6.26,33.22c0,15.24,45.61,39.75,74.47,39.75,5.57,0,22-13.21,39.88-30a89.26,89.26,0,0,0-1.36,15.65A91.61,91.61,0,0,0,631.54,405a22.26,22.26,0,0,0,3.1-.52,2.6,2.6,0,0,1-1.51,2.45c16.15,19.17,39.09,31.09,61.39,31.09,1.26,0,2.53-.05,3.81-.12.95-.6,2-.86,2.47-.43a1.63,1.63,0,0,1,.17.22c2.25-.22,4.5-.56,6.75-1-.34-1.79,3.22-3.78,4.11-2.89a1.46,1.46,0,0,1,.17,1.94,95,95,0,0,0,14.28-4.9v-1.63h3.64a168.59,168.59,0,0,0,32.7-20.9,9.33,9.33,0,0,1,.67-3.83,3,3,0,0,1,2.23,1.49,318,318,0,0,0,27.81-26,18.78,18.78,0,0,1-.64-8.46c3.93-1.51,2.45,2.54,3.68,3.68l1,.52c10.06-10.83,19.62-22.25,28.44-33.55.32-1.82,1.08-2.42,1.82-2.34,4.35-5.63,8.52-11.21,12.46-16.67-.24-1,.82-2.1,2-2.7,7.86-11,14.82-21.34,20.62-30.37,7.08,14.43,18.11,30.9,31.58,46-5.71,2.72-11.29,5.58-15.92,7.76-2.84,1.28-5.56,2.56-8.19,3.85-.74,1.34-3,2.42-3.78,1.9-40.35,20.71-54.6,42.75-54.6,62.17,0,25.15,23.66,45.92,45.19,53.85,2.79-1.82,2.58-1,1.37.49a50.67,50.67,0,0,0,14.88,3c.43-1.58,3.28-3,4.07-2.26a1.5,1.5,0,0,1,0,2.12c30.33-2.66,91.28-41.12,91.28-75.53,0-15.66-12.39-37.57-24.77-58.4l8.34-4.85c-3-2-4.43-5.56-8.71-6.28.39-13,12.13,7.8,11-3.66,3.25.08,3,3.73,3.49,6.53,25.13-14.8,51.24-30.93,73.75-45.28-9.27,28.06-16,51.28-18.42,64.43.83.84.39,1.85-.45,2.63a39.41,39.41,0,0,0-.55,5.7c0,7.1,4.74,14.08,11.61,20.27-.46-1.79,3.17-3.86,4.08-3,1.63,1.64-1.5,3.92-3,3.89a81,81,0,0,0,7.25,5.56c1.1-1.9,3.16-.14,3.16,1.56,0,.16-.07.3-.11.45a113.38,113.38,0,0,0,26.73,12.41c1.42-5,7.21-10,13.81-9.2.32,5.08-1.51,8-3.47,10.84,3.15-.36,5.15-2.29,5.15-7.36,0-13.3,14.33-43.88,34.91-78.56-2.59-2.44-6-4.44-10.86-1.88.77-7.27,8.18-7.91,16.57-7.58q3.23-5.26,6.6-10.6a1.23,1.23,0,0,1-1.12-.14c-1.84-1.86,2.42-4.55,3.59-3.74,14.71-23,31.24-46.39,47.45-66.84-18.18,39.68-37.29,103.11-37.29,138.15a16.2,16.2,0,0,0,2.49,8.15l-.09,0a10.46,10.46,0,0,0,1.12,2.2c0,.09,0,.18.06.24.17.24.42.52.64.8s.51.7.81,1.08.54.72.81,1.17c.23.25.55.5.79.75a60.76,60.76,0,0,0,4.9,4.89c.06-1.69,3.27-3.43,4.13-2.59,1.5,1.5-1.09,3.57-2.71,3.84,6.9,5.93,18.27,13.85,37,23.46,17.94,9.23,39.47,13.06,61.55,12.67a15.07,15.07,0,0,1-.24-3.32,11.4,11.4,0,0,1,5,3.18c30.26-1.35,61.15-10.42,85-24.2,42.51-24.58,76.27-67.09,90.44-91.27,9.54-16.28,19.84-50.16,19-85.44A1.11,1.11,0,0,1,1447,213.93Zm-199.87-40.86c1.89,1.89-2.68,4.67-3.67,3.66C1241.52,174.83,1246.05,172.05,1247.09,173.07Zm-2.29,29.87c1.89,1.89-2.68,4.68-3.68,3.66C1239.23,204.71,1243.76,201.92,1244.8,202.94Zm-7.35,11c1.89,1.89-2.68,4.68-3.68,3.66C1231.88,215.7,1236.41,212.91,1237.45,213.93Zm-3.68,14.67c1.89,1.89-2.68,4.68-3.67,3.66C1228.2,230.37,1232.74,227.58,1233.77,228.6Zm-11-18.32c-.72,4.15-3.68,2-3.68,0C1219.75,206.12,1222.75,208.24,1222.75,210.28Zm-3.68,36.64c-.71,4.16-3.68,2-3.68,0C1216.07,242.77,1219.07,244.89,1219.07,246.92Zm-3.68,36.65c1.9,1.9-2.67,4.68-3.67,3.66C1209.83,285.34,1214.36,282.56,1215.39,283.57ZM1193.34,60c1.89,1.89-2.68,4.68-3.68,3.68C1187.77,61.77,1192.31,59,1193.34,60Zm-33.08-7.33c1.89,1.91-2.68,4.69-3.68,3.68C1154.69,54.45,1159.22,51.67,1160.26,52.67Zm-44.11,121c15.91,1.52-3.89,21.28,0,0ZM1134.53,71c1.89,1.91-2.68,4.7-3.68,3.68C1129,72.78,1133.49,70,1134.53,71Zm3.67,44.33c14,12.29-10.7,49.62-14.7,22h11c-2.86-3.26-4-8.28-3.68-14.66-6.24-1.34-6.92,2.85-7.35,7.33C1113.62,135.83,1125.64,110.44,1138.2,115.32Zm-25.73,29c12.35,3.36,1.82,6.82,3.68,18.33C1106.8,162.26,1107.48,149,1112.47,144.29ZM1097.77,159c4.32,5.48,15.28,4.32,14.7,14.66Q1095.19,176.17,1097.77,159ZM983.83,177.28c-.11,3.57-4.5,2.84-7.36,3.66C976.58,177.39,981,178.1,983.83,177.28Zm-3.68,33c8.21-14.12-1.64,9.86-3.68,7.31C973.44,213.81,979.72,211,980.15,210.28Zm-14.7-22c1-.26,2.75.47,3.68,0,5.6-2.78,2.74,2.31,0,3.68C964.2,194.41,960.88,189.49,965.45,188.27Zm-7.35-11c-.72,4.16-3.68,2-3.68,0C955.14,173.13,958.1,175.25,958.1,177.28Zm0,25.66c1.89,1.89-2.68,4.68-3.68,3.66C952.53,204.71,957.06,201.92,958.1,202.94Zm-11-18.32c-.71,4.15-3.67,2-3.67,0C944.11,180.46,947.07,182.58,947.07,184.62Zm-11,11c12.32-8.85-8.88,12.29,0,0Zm-7.35,11c-.1,3.57-4.49,2.85-7.35,3.68C921.45,206.71,925.84,207.42,928.69,206.6ZM755.94,331.21c-3.05-3.8,3.26-6.61,3.67-7.33C767.8,309.77,758,333.77,755.94,331.21Zm11-11c-1.9-1.91,2.66-4.67,3.68-3.67C772.55,318.46,768,321.24,767,320.22Zm0-22c.11-3.55,4.5-2.83,7.35-3.66C774.21,298.14,769.82,297.4,767,298.22Zm22.06-44c1.91,1.89-2.66,4.67-3.68,3.66C783.43,256,788,253.24,789,254.26Zm0,14.65c-1.63,5.33-3.23-.38-7.35,0C782.58,264.3,789,265.21,789,268.91Zm-29.41-73.3c1.91,1.89-2.66,4.67-3.67,3.66C754,197.37,758.59,194.59,759.61,195.61Zm-3.67,36.65c1.91,1.89-2.66,4.67-3.68,3.67C750.35,234,754.92,231.24,755.94,232.26Zm-11,0c1.94-5.64,3.84-.23,3.68,3.67C746.64,241.57,744.75,236.17,744.91,232.26Zm-22-3.66c-.7,4.16-3.7,2-3.68,0C719.88,224.44,722.87,226.57,722.86,228.6Zm-14.7-22c1.9,1.91-2.67,4.69-3.68,3.68C702.57,208.36,707.14,205.58,708.16,206.6Zm-7.36,95.3c-.7,4.16-3.69,2-3.67,0C697.82,297.74,700.82,299.86,700.8,301.9Zm-11-7.34c1.92,1.9-2.65,4.68-3.67,3.66C684.19,296.33,688.76,293.55,689.77,294.56Zm-7.34-40.3c-10-11.15,11.18,10,0,0ZM362.64,441.16c-6.28.77-9.51-6.24-11,0-10.41-8.27.56-26.08,7.36-29.31C372.35,417.43,368.82,430.22,362.64,441.16Zm33.08,11c-1.89-1.89,2.66-4.67,3.68-3.65C401.31,450.39,396.74,453.17,395.72,452.15Zm0-18.32c-1.89-1.89,2.66-4.68,3.68-3.66C401.31,432.06,396.74,434.85,395.72,433.83Zm3.68-128.27c-1.89-1.9,2.66-4.68,3.67-3.66C405,303.79,400.42,306.57,399.4,305.56Zm11-22c-1.9-1.89,2.66-4.69,3.67-3.67C416,281.81,411.44,284.59,410.43,283.57Zm0-25.65c-1.9-1.9,2.66-4.68,3.67-3.66C416,256.15,411.44,258.93,410.43,257.92Zm36.75,11c-.69,4.15-3.67,2-3.67,0C444.2,264.75,447.2,266.87,447.18,268.91Zm0,25.65c-8.67,11.8-14.84-12.88,0,0Zm-29.4-33c.69-4.15,3.69-2,3.67,0C420.76,265.75,417.78,263.61,417.78,261.57Zm3.67,77c1.65-5.34,3.23.37,7.35,0C427.89,343.15,421.51,342.24,421.45,338.55Zm44.11-25.66c-1.89-1.89,2.66-4.68,3.68-3.66C471.14,311.12,466.58,313.91,465.56,312.89Zm7.35-3.66c-1.89-1.91,2.66-4.69,3.68-3.67C478.5,307.45,473.93,310.23,472.91,309.23Zm14.7-11c1.63-5.31,3.23.38,7.36,0C494.06,302.85,487.67,301.94,487.61,298.22Zm99.25-25.64c1.91,1.89-2.66,4.68-3.68,3.66C581.27,274.35,585.84,271.57,586.86,272.58Zm-11-3.67c1.91,1.89-2.66,4.67-3.67,3.67C570.24,270.67,574.81,267.89,575.83,268.91Zm-3.67-36.65c-3.27,2.24-6.57,4.42-7.36,0C565.71,227.65,572.12,228.56,572.16,232.26Zm-40.44,44c1.91,1.89-2.66,4.68-3.67,3.66C526.16,278,530.71,275.22,531.72,276.24Zm-25.73,44c1.61-4.51,4.71-7.53,11-7.33C515.41,317.4,512.31,320.42,506,320.22Zm25.73,0c-3.8,3.79-5.71-1.64-3.67-3.67C531.85,312.76,533.76,318.19,531.72,320.22Zm0-29.31c1.31-4.82,6.48-5.77,7.35-11,4,.91,2.5,7.29,7.36,7.33C542.82,293.15,536.63,295.67,531.72,290.91Zm22.06,3.65c-10-11.15,11.18,10,0,0Zm3.67-40.3c-1.91-1.91,2.66-4.69,3.68-3.68C563,252.47,558.47,255.26,557.45,254.26Zm7.35,106.27c-1.9-1.89,2.66-4.68,3.68-3.66C570.39,358.76,565.82,361.55,564.8,360.53Zm25.73-22c-1.9-1.91,2.66-4.68,3.68-3.68C596.12,336.78,591.55,339.56,590.53,338.55Zm11-22c-1.91-1.89,2.66-4.68,3.68-3.66C607.14,314.78,602.58,317.56,601.56,316.55Zm73.51-84.29c1.91,1.89-2.66,4.67-3.67,3.67C669.49,234,674.06,231.24,675.07,232.26Zm-29.4,44c-3.27,2.25-6.57,4.42-7.35,0C639.22,271.64,645.63,272.55,645.67,276.24Zm-7.35,106.29c-1.91-1.91,2.66-4.69,3.67-3.68C643.9,380.76,639.33,383.53,638.32,382.53ZM642,301.9c.7-4.16,3.7-2,3.68,0C645,306.06,642,303.93,642,301.9Zm3.68-14.67c-1.91-1.89,2.66-4.67,3.67-3.66C651.25,285.47,646.68,288.25,645.67,287.23Zm3.67,11c-1.91-1.89,2.66-4.67,3.68-3.66C654.93,296.46,650.36,299.24,649.34,298.22Zm14.7,73.3c-.1,3.57-4.49,2.86-7.34,3.68C656.8,371.63,661.19,372.34,664,371.52Zm-3.67,14.67c-1.91-1.89,2.66-4.68,3.67-3.66C666,384.42,661.39,387.21,660.37,386.19Zm3.67-33c-3.28-7.62.79-2.09,3.68,3.67C673.09,367.58,668,362.44,664,353.2Zm13.59-18.33c-3.13-.66-3.46,1.45-3.68,3.68-4-.91-2.5-7.3-7.35-7.34.59-4.29,6.71-3.08,11-3.65Zm4.8,88c-1.92-1.89,2.65-4.68,3.67-3.66C688,421.07,683.44,423.86,682.43,422.84Zm0-14.67c-1.92-1.89,2.65-4.67,3.67-3.66C688,406.4,683.44,409.19,682.43,408.17Zm91.88-25.64c-8.06-11.22-7.56-11.7,3.68-3.68C781,387.54,772.82,395.74,774.31,382.53Zm18.38-33c-1.91-1.89,2.66-4.67,3.68-3.66C798.26,347.77,793.71,350.56,792.69,349.54Zm7.35-3.66c.72-4.18,3.68-2,3.68,0C803,350,800,347.92,800,345.88Zm11,3.66c-5-1.14-3-9.17-3.67-14.67C820.24,331.61,813.68,346.83,811.07,349.54Zm11-36.65c-1.89-1.89,2.68-4.68,3.67-3.66C827.67,311.12,823.1,313.91,822.1,312.89Zm3.67,22c-1.88-1.89,2.68-4.67,3.68-3.66C831.34,333.11,826.78,335.89,825.77,334.87Zm-3.67,95.3c-1.89-1.89,2.68-4.67,3.67-3.67C827.67,428.41,823.1,431.19,822.1,430.17Zm143.35-33c1.89,1.91-2.68,4.69-3.68,3.68C959.88,398.94,964.42,396.16,965.45,397.18Zm-3.68-14.65c1.89,1.89-2.68,4.68-3.67,3.66C956.21,384.3,960.74,381.51,961.77,382.53Zm-3.67,11c1.89,1.89-2.68,4.68-3.68,3.66C952.53,395.29,957.06,392.51,958.1,393.52ZM914,345.88c1.89,1.89-2.68,4.68-3.68,3.66C908.42,347.65,913,344.87,914,345.88ZM906.64,206.6c1.89,1.91-2.68,4.69-3.68,3.68C901.07,208.36,905.6,205.58,906.64,206.6ZM903,334.87c1.9,1.91-2.67,4.69-3.67,3.68C897.4,336.64,901.93,333.87,903,334.87Zm-11-113.61c12.31-8.86-8.89,12.3,0,0Zm-22.06,18.33c1.89,1.89-2.67,4.67-3.67,3.66C864.32,241.36,868.85,238.57,869.88,239.59Zm-11,33c-1.9-1.91,2.67-4.69,3.67-3.67C864.42,270.8,859.85,273.58,858.86,272.58Zm7.35-22c12.92,11.73-7.57,19.61,0,0Zm14.7-33c-1.89-1.89,2.64-4.68,3.68-3.66C886.47,215.82,881.91,218.61,880.91,217.59Zm9.87,98.12h-6.95v-6.95h6.95Zm-2.52-28.48c-1.89-1.89,2.64-4.67,3.68-3.66C893.83,285.47,889.26,288.25,888.26,287.23Zm3.68-33c-9.89-5.93-5.47-11.62,0-18.33C900.14,236.47,887.15,245.16,891.94,254.26Zm0,98.94c1.89,1.9-2.68,4.69-3.68,3.67C886.37,355,890.9,352.2,891.94,353.2Zm-14.71,0c1.9,1.9-2.67,4.69-3.67,3.67C871.67,355,876.2,352.2,877.23,353.2ZM836.8,371.52c1.89,1.91-2.68,4.7-3.67,3.68C831.23,373.31,835.8,370.52,836.8,371.52Zm51.46,33c9.71-1.1,9.49,7.66,11,14.67C886.37,421.94,882.83,409.58,888.26,404.51Zm-45.63,18.3c-7.09,0-12.12-3.27-12.12-9.26,0-9.93,14.16-27.22,57.31-48.19l2.77-1.33c-.81,0-1.59.08-2.33.18.52-3.67,5-3.34,9-3.52,3-1.54,6.14-3.16,9.32-4.85,3.27,6,5,11.29,5,15.92C911.64,394.5,863.05,422.81,842.63,422.81Zm67.68-7.3c.72-4.16,3.68-2,3.68,0C913.27,419.66,910.31,417.54,910.31,415.51ZM914,430.17c.11-3.57,4.5-2.85,7.35-3.67C921.23,430.06,916.85,429.35,914,430.17Zm7.35-73.3c.11-3.57,4.5-2.85,7.35-3.67C928.59,356.77,924.2,356.05,921.34,356.87Zm25.73,66c-.71,4.15-3.67,2-3.67,0C944.11,418.68,947.07,420.8,947.07,422.84Zm-3.67-73.3c-2.5-7.26-21.91,2.28-18.38-11C931.4,341.94,944.75,338.42,943.4,349.54Zm18.37-44c4.54,1.6,7.53,4.69,7.36,11C961.27,318.26,962.13,311.32,961.77,305.56Zm18.38-7.34c-1.89-1.89,2.64-4.67,3.68-3.66C985.72,296.46,981.15,299.24,980.15,298.22Zm18.38,0c-1.89-1.89,2.64-4.67,3.67-3.66C1004.1,296.46,999.53,299.24,998.53,298.22Zm25.73,55c.71-4.16,3.67-2,3.67,0C1027.22,357.37,1024.26,355.23,1024.26,353.2Zm7.35-14.65c-8.13,2-5.24-7-11-7.34C1022.08,322.08,1034.82,331,1031.61,338.55Zm3.68,22c.1-3.57,4.49-2.84,7.35-3.66C1042.53,360.44,1038.14,359.71,1035.29,360.53Zm11-80.63c-1.89-1.89,2.64-4.68,3.68-3.66C1051.88,278.13,1047.31,280.92,1046.31,279.9Zm11,73.3c.11-3.55,4.5-2.84,7.35-3.66C1064.59,353.11,1060.2,352.37,1057.34,353.2Zm0-36.65c.72-4.16,3.68-2,3.68,0C1060.3,320.72,1057.34,318.58,1057.34,316.55Zm14.7,25.66c-1.89-1.89,2.64-4.68,3.68-3.66C1077.61,340.44,1073,343.22,1072,342.21Zm3.68-95.29c-9-2-7.85-14.18-22.06-11,2.86-3.26,4-8.28,3.68-14.67,11,.08,22.37-.33,22.05,11C1062.59,223.1,1072.54,237.47,1075.72,246.92Zm14.7,33c-1.89-1.89,2.64-4.68,3.68-3.66C1096,278.13,1091.42,280.92,1090.42,279.9Zm3.68,55c-1.9-1.89,2.64-4.67,3.67-3.66C1099.66,333.11,1095.1,335.89,1094.1,334.87Zm7.35-44c9.49-12.64,8.88,18.84,0,0Zm11-11c-1.89-1.89,2.65-4.68,3.68-3.66C1118,278.13,1113.48,280.92,1112.47,279.9Zm14.71-33c-1.89-1.91,2.64-4.69,3.67-3.67C1132.74,245.16,1128.18,247.94,1127.18,246.92Zm22-7.33c-1.89-1.89,2.64-4.67,3.68-3.66C1154.8,237.83,1150.23,240.61,1149.23,239.59Zm0-11c-1.89-1.91,2.64-4.69,3.68-3.68C1154.8,226.83,1150.23,229.62,1149.23,228.6Zm18.38-14.67c-1.89-1.89,2.64-4.67,3.68-3.65C1173.18,212.17,1168.61,215,1167.61,213.93Zm29.41,95.3c1.88,1.89-2.68,4.68-3.68,3.66C1191.45,311,1196,308.21,1197,309.23Zm-7.36,7.32c-1.64,5.33-3.24-.36-7.35,0C1183.21,311.94,1189.63,312.85,1189.66,316.55ZM1186,224.92c1.89,1.91-2.68,4.7-3.68,3.68C1180.42,226.69,1185,223.91,1186,224.92Zm-3.68-11c1.89,1.89-2.67,4.68-3.67,3.66C1176.75,215.7,1181.28,212.91,1182.31,213.93Zm-18.38,106.29c-10-11.15,11.17,10,0,0Zm-3.67,40.31c-10-11.15,11.17,10,0,0Zm3.67,22c.68-4.17,3.68-2,3.68,0C1166.9,386.69,1163.93,384.56,1163.93,382.53Zm3.68-29.33c-1.89-1.9,2.64-4.68,3.68-3.66C1173.18,351.43,1168.61,354.21,1167.61,353.2Zm-3.68-51.3c2.43-4.93,7.86-6.83,14.71-7.34C1175.32,301,1170.39,308.68,1163.93,301.9Zm14.71,62.31c1.5-9.14,14.24-.24,11,7.31C1181.53,373.56,1184.42,364.53,1178.64,364.21Zm11,18.32c-1.89-1.91,2.65-4.69,3.68-3.68C1195.23,380.76,1190.66,383.53,1189.66,382.53Zm3.68-55c.89-4.62,7.31-3.71,7.35,0C1197.41,329.81,1194.12,332,1193.34,327.56Zm14.7,55c.68-4.17,3.68-2,3.68,0C1211,386.69,1208,384.56,1208,382.53Zm14.71,11c-.93,5.57-3.14.32-3.68,0-1.28-.77-6.5,1.13-7.35,0C1206.08,386.14,1224.06,385.54,1222.75,393.52Zm7.35,18.33c-1.9-1.9,2.64-4.68,3.67-3.68C1235.66,410.08,1231.09,412.86,1230.1,411.85Zm14.7-11c-1.89-1.92,2.64-4.7,3.67-3.68C1250.37,399.09,1245.8,401.87,1244.8,400.86Zm0-14.67c-1.89-1.89,2.64-4.68,3.67-3.66C1250.37,384.42,1245.8,387.21,1244.8,386.19ZM1322,334.87c1.89,1.91-2.68,4.69-3.68,3.68C1316.38,336.64,1321,333.87,1322,334.87Zm-36.76,44c-10-11.15,11.17,10,0,0Zm-18.38,22c-1.89-1.92,2.64-4.7,3.68-3.68C1272.42,399.09,1267.85,401.87,1266.85,400.86Zm0-22c-1.89-1.89,2.64-4.67,3.68-3.65C1272.42,377.09,1267.85,379.87,1266.85,378.85Zm7.35,29.32c.68-4.16,3.68-2,3.68,0C1277.17,412.34,1274.2,410.21,1274.2,408.17Zm14.7,0c-7.13-3.89-9.6-12.4-14.7-18.32C1283.38,377.41,1289.76,398.48,1288.9,408.17Zm18.39-18.32h-11c-1.36,6.25,2.85,6.93,7.35,7.34-1.18,7.78-17.42.8-14.71-7.34,16.42-4.4,17.17-24.42,33.09-29.31C1328.34,367.1,1306.36,376.56,1307.29,389.85Zm25.72-66c1.89,1.89-2.67,4.68-3.67,3.68C1327.41,325.65,1332,322.86,1333,323.88Zm0,25.66c-.71,4.16-3.67,2-3.67,0C1330,345.38,1333,347.5,1333,349.54Zm-3.67,33c-1.93-1.91,2.64-4.69,3.67-3.68C1334.9,380.76,1330.34,383.53,1329.34,382.53Zm3.67-40.32c5.82-13.74,21.49-17.67,40.44-18.33C1361.35,331.37,1340.72,330.38,1333,342.21Zm40.44,7.33c-1.93-1.89,2.64-4.67,3.67-3.66C1379,347.77,1374.45,350.56,1373.45,349.54Zm33.08-128.28c.67-4.15,3.67-2,3.67,0C1409.49,225.42,1406.49,223.3,1406.53,221.26Zm3.67,85c-1.89-1.91,2.65-4.69,3.68-3.67C1415.77,304.47,1411.2,307.25,1410.2,306.23Zm.88-141.62c-1.93-1.89,2.64-4.68,3.67-3.68C1416.65,162.84,1412.08,165.63,1411.08,164.61Zm7.05,42.1c1.81-.19,2.08-1.94,2.25-3.77,7.07-1.45,5.39,16.33-3.41,11.15Zm3.1,32.88c-10.67-8.12,5.64,4.6,3.67-3.66-4.42-4.81-1.42-5.78,0-11,4.93,2.41,6.86,7.84,7.36,14.67C1426,238.82,1422.73,245.84,1421.23,239.59Zm14.7,14.67c-1.93-1.91,2.64-4.69,3.68-3.68C1441.5,252.47,1436.93,255.26,1435.93,254.26Z"/>
<path class="a" d="M958.1,661.06a2.1,2.1,0,0,1-2.39-.85v1.64h9.78v-8.08C964.21,657.38,958.35,656.43,958.1,661.06Z"/>
<path class="a" d="M998.53,653.74c-1.26-1.26.33-2.91,1.84-3.58V604.24h-9.79v35.28l-34.87-37.77v54.84c1.19-3.84,5.24-8.42,9.74-6.52a1.42,1.42,0,0,1,0,.2V626.56l34.88,37.77V653.64C999.61,654,998.87,654.08,998.53,653.74Z"/>
<path class="a" d="M388,118.74c11.23-34.5,18.21-60.08,18.21-69.19C406.2,29.13,370.81,0,336.91,0,268.29,0,193.45,30.48,131.77,74.76h6.66c1.73,7.82-5.25,7-11,7.33.68-2.83,3.4-3.59,3.65-6.81C55.58,129.68,0,204.71,0,269.67c0,1.43,0,2.85.08,4.26,1.08-.39,2.36,1,2.35,2.31-.34,2.05-1.25,2.57-2.07,2.33C3.68,319.65,30,348.62,67.52,348.62c15.66,0,23.28-4.76,23.28-9.53,0-4.08-5.45-7.62-15.66-7.62-24.5,0-40.84-18.65-40.84-49.69,0-28.54,14.4-59.85,38.32-90.13-5.27-3.35,6.81-9.1,2.52-17.27,7.84-.38,8.15,2.7,6.36,6.56C137.86,116.23,236,58.43,327.39,45.88c-8.79,32.69-25.94,85-46.33,142.14a6.84,6.84,0,0,1,.72.25c1.08,4.32-1,5.53-3.16,6.57-6,16.81-12.33,34-18.76,51.14-71.6,7.62-115,27.36-115,67.11,0,20.83,11.71,43.83,23,43.83,3.67,0,4.76-3.26,4.76-9.39,0-30.76,27.77-54.45,74.46-68.34-30.27,79.31-61.89,153.33-81.13,185,1.09,4.29,2.13,9.75,1.89,13.66-7,.62-8.17-1.8-7.47-5.23-.7,1-1.39,1.85-2.05,2.64a43.59,43.59,0,0,1-6.08,6.07,1,1,0,0,1,.9.2c1.91,1.89-2.66,4.67-3.67,3.65a1.38,1.38,0,0,1-.38-1.49c-5.06,3.45-10.41,5.45-14.85,5.45a9.86,9.86,0,0,1-4.13-.87c-1,.7-2.23,1-2.7.57a1.58,1.58,0,0,1,.12-2.31c-2.36-2.22-3.78-5.76-3.78-10.18,0-8-5.17-12.8-10.62-12.8-6.26,0-13.21,6.26-13.21,19.47,0,24.09,23,41.24,57.73,41.24,33.21,0,67.24-16.06,86.84-47.1a1.4,1.4,0,0,0,.1-.16c-2.28,2.9-8.92,8.72-3.24.85,3-2.17,4-2.53,4-2,2.49-4.17,5.4-9.57,8.66-16-2.05-4.69-4.46-9-8.94-11.28,1.65-6.93-5-22.09,7.35-18.33-6.89,11-2.36,18.45,3.43,25.92,19.68-39.79,50.53-114.12,78.93-188.2,20.83,0,36.49-5.85,36.49-13.88,0-6.94-11-12-27.09-12,3.31-8.72,6.56-17.4,9.73-26-1.28-.7-1-4,3.09-11.85a11.15,11.15,0,0,1,1.23.12c11.14-30.42,21.16-59.11,29.13-83.51-1.5,1.09-4.28.91-6.29,1.49C381.12,118.9,385.14,119.41,388,118.74Zm0-48.61h7v7h-7ZM9.78,228.6c-1.89-1.91,2.66-4.69,3.68-3.68C15.37,226.83,10.82,229.62,9.78,228.6Zm18.38,18.32c.71-4.15,3.69-2,3.67,0C31.14,251.08,28.16,249,28.16,246.92Zm-3.68-36.64c.11-3.57,4.52-2.86,7.35-3.68C31.74,210.17,27.34,209.45,24.48,210.28Zm11-36.66c11.19-10-10,11.14,0,0Zm25.73-33c-1.89-1.89,2.66-4.67,3.67-3.65C66.83,138.87,62.26,141.65,61.24,140.63Zm25.24-4.84c.7-4.14,3.7-2,3.68,0C89.46,140,86.48,137.83,86.48,135.79Zm34.2-4.51C110,131.21,112,110.56,117,105.62,131.31,112.6,112.11,115.61,120.68,131.28Zm54.5,145c-3.26,2.25-6.56,4.42-7.35,0C168.74,271.64,175.15,272.55,175.18,276.24Zm-18.37,62.31c.1-3.57,4.51-2.86,7.35-3.68C164.07,338.44,159.66,337.73,156.81,338.55Zm11-47.64c11.07-3.7,6.52,8.15,7.35,14.65C168.72,304.68,166.82,299.26,167.83,290.91Zm7.35,22c11.19-10-10,11.15,0,0Zm40.44-33c-1.89-1.89,2.66-4.68,3.67-3.66C221.2,278.13,216.63,280.92,215.62,279.9ZM101.67,481.49c-1.89-1.91,2.66-4.7,3.68-3.68C107.26,479.7,102.69,482.49,101.67,481.49Zm18.38,7.31c-1.89-1.89,2.66-4.67,3.68-3.66C125.63,487,121.07,489.82,120.05,488.8Zm11,7.34c.6,4.26-.81,6.53-3.68,7.33.91,4.6,7.32,3.69,7.35,0C149,524.88,106.58,502.31,131.08,496.14Zm11-3.66c-1.89-1.91,2.66-4.69,3.68-3.68C147.69,490.71,143.12,493.48,142.1,492.48Zm14.71,22c-6.53-2.69-.52-6.65,0-11C163.69,494.26,157.22,509.55,156.81,514.46Zm0-29.32c-1.9-1.88,2.65-4.67,3.67-3.65C162.39,483.38,157.82,486.16,156.81,485.14Zm69.83-135.6c5,1.14,3.05,9.17,3.68,14.67C221.81,363.17,221.88,354.41,226.64,349.54Zm-36.75,77c1.91,1.91-2.66,4.69-3.68,3.67C184.32,428.28,188.87,425.5,189.89,426.5Zm-14.71,55c1.91,1.89-2.66,4.67-3.67,3.65C169.62,483.26,174.17,480.47,175.18,481.49Zm3.68,18.3c-4.28,3.75-8.69,2.91-3.68,0C179.72,497.19,183.25,496,178.86,499.79Zm-10.94,18.33V510.8c3,2.54,10.08,5.69,11,0C188.8,510.61,169.39,529.59,167.92,518.12Zm14.62-58.63c-12.17-3.59,4.12-7.25,3.67-11C196.86,450.55,180.57,454.21,182.54,459.49Zm7.35,14.67c-1.89-1.91,2.66-4.7,3.67-3.68C195.47,472.39,190.91,475.17,189.89,474.16Zm7.35,36.64c-1.89-1.91,2.66-4.67,3.67-3.67C202.82,509,198.25,511.8,197.24,510.8Zm3.67-33c11.19-10-10,11.15,0,0Zm0,14.67c-1.89-1.91,2.66-4.69,3.68-3.68C206.5,490.71,201.93,493.48,200.91,492.48Zm-2.52-40.11c.54-3.63.57-3.81,1.12-7.44,1.79-.21,2-1.95,2.21-3.77C208.76,439.74,207.13,457.39,198.39,452.37Zm9.88,36.43c-1.72-7.81,5.26-7,11-7.31C217.69,486,214.6,489,208.27,488.8ZM223,437.5c-9.16-1.49-.21-14.21,7.35-11C232.35,434.63,223.31,431.72,223,437.5Zm11-106.29c-1.9-1.89,2.65-4.67,3.67-3.65C239.58,329.45,235,332.23,234,331.21Zm3.67,33c-1.89-1.91,2.66-4.7,3.67-3.68C243.26,362.42,238.69,365.2,237.67,364.21Zm0-40.33c-1.89-1.89,2.66-4.67,3.67-3.66C243.26,322.11,238.69,324.9,237.67,323.88Zm36.76-73.3c1.91,1.89-2.66,4.68-3.68,3.68C268.86,252.35,273.41,249.57,274.43,250.58Zm-7.36,73.3c-.69,4.16-3.67,2-3.67,0C264.1,319.72,267.09,321.85,267.07,323.88ZM248.7,386.19c12.33-8.85-8.89,12.29,0,0Zm0,14.67c-1.89-1.92,2.66-4.7,3.67-3.68C254.28,399.07,249.72,401.87,248.7,400.86Zm7.35,18.32c-2.16.37-4.61-5.16-3.68-7.33C257.94,398.91,259.35,418.59,256.05,419.18Zm3.68-66c1.64-5.32,3.23.37,7.34,0C266.16,357.82,259.78,356.91,259.73,353.2Zm7.34,33c16.47.78-13.93,26.6,0,0Zm7.36-22c-1.89-1.91,2.66-4.7,3.67-3.68C280,362.42,275.45,365.2,274.43,364.21Zm3.67-51.32c-1.89-1.89,2.66-4.68,3.68-3.66C283.69,311.12,279.12,313.91,278.1,312.89Zm3.68-44c-1.89-1.89,2.66-4.68,3.67-3.66C287.36,267.14,282.79,269.92,281.78,268.91Zm3.67,113.62c-1.89-1.91,2.66-4.69,3.68-3.68C291,380.75,286.47,383.53,285.45,382.53Zm3.68-121c-6.55-2.67-.52-6.65,0-11C295.68,253.28,289.66,257.26,289.13,261.57Zm0-76.95c.11-3.57,4.5-2.84,7.35-3.68C296.39,184.51,292,183.8,289.13,184.62Zm11,80.63c-1.89-1.89,2.66-4.69,3.67-3.68C305.74,263.48,301.18,266.27,300.16,265.25Zm7.35,47.64c-2.86,6.69-3.94-2.2-3.68-7.33C306.69,298.87,307.79,307.75,307.51,312.89Zm3.67-62.31c.11-3.57,4.5-2.83,7.36-3.66C318.45,250.49,314,249.76,311.18,250.58ZM340.59,23.35c-.7,4.16-3.68,2-3.68,0C337.61,19.2,340.61,21.32,340.59,23.35ZM175.18,71c.11-3.55,4.52-2.83,7.36-3.66C182.45,70.9,178,70.17,175.18,71Zm25.73-14.64c-4.92,2.45-8.22-2.47-3.67-3.68,1-.27,2.75.48,3.67,0C206.52,49.88,203.66,55,200.91,56.35ZM267.07,49c11.19-10-10,11.15,0,0Zm11-3.66c.7-4.17,3.7-2,3.68,0C281.08,49.51,278.1,47.38,278.1,45.35Zm11-36.65c.11-3.57,4.5-2.85,7.35-3.67C296.39,8.6,292,7.88,289.13,8.7Zm11,29.32c-1.89-1.89,2.66-4.69,3.67-3.68C305.74,36.25,301.18,39,300.16,38Zm14.7-22c-1.89-1.89,2.66-4.68,3.68-3.66C320.44,14.25,315.88,17,314.86,16Zm11,25.66C324,39.78,328.55,37,329.56,38,331.47,39.91,326.9,42.69,325.89,41.68Zm7.35,36.65c-1.9-1.89,2.65-4.68,3.67-3.66C338.82,76.56,334.25,79.35,333.24,78.33Zm3.67-14.65C335,61.77,339.57,59,340.59,60,342.5,61.89,337.93,64.68,336.91,63.68Zm14.7,14.65c.7-4.16,3.7-2,3.68,0C354.6,82.48,351.61,80.36,351.61,78.33Zm11,77c.7-4.17,3.7-2,3.68,0C365.62,159.46,362.64,157.33,362.64,155.3Zm14.7-102.63c.7-4.16,3.7-2,3.68,0C380.33,56.84,377.34,54.7,377.34,52.67Z"/>
</svg>