<svg viewBox="0 0 33 33"
	 fill='#FFFFFF' style="mix-blend-mode: difference" >
				<path style="mix-blend-mode: difference" class="st0" d="M11.1,8.8c0.3,0,0.6,0.1,0.9,0.1c0.2,0,0.4,0.3,0.5,0.5c0.5,1.1,0.9,2.1,1.3,3.2c0.2,0.6-0.2,1.1-1,2.1
					c-0.3,0.3-0.3,0.6-0.1,0.9c1.3,2.3,3.2,3.9,5.7,4.9c0.1,0,0.2,0.1,0.3,0.1c0.2,0,0.4-0.1,0.6-0.3c1.1-1.3,1.4-1.8,1.8-1.8
					c0.1,0,0.2,0,0.4,0.1c3.3,1.6,3.6,1.6,3.6,2c0.1,2.6-2.2,3.7-3.8,3.7c-0.1,0-0.2,0-0.2,0c-3.2-0.1-8.3-2.6-11.7-8.7
					c-1.2-2.2-1-4.6,0.8-6.3C10.3,8.9,10.7,8.8,11.1,8.8z"/>

				<path class="st0" d="M32.8,13.4c1.6,9.1-4.4,17.6-13.4,19.2c-1,0.2-1.9,0.2-2.9,0.2c-2.5,0-5-0.6-7.3-1.7
					c-0.2-0.1-0.4-0.1-0.7-0.1c-0.1,0-0.2,0-0.3,0C3.8,32.1,0.9,32.9,0,33c0.2-0.7,0.4-1.3,0.5-2c0.6-2,1.1-4,1.7-6
					c0.1-0.3,0.1-0.7-0.1-1C-2.9,14.6,2.4,2.9,13,0.5C14.3,0.1,15.6,0,16.9,0C24.9,0,31.5,5.9,32.8,13.4z M18.7,29.9
					c7.4-1.2,12.6-8.1,11.5-15.6c-1-6.8-6.8-11.7-13.4-11.7c-0.8,0-1.7,0.1-2.5,0.2C5.1,4.6,0.1,14.9,4.6,23
					c0.5,0.9,0.6,1.6,0.3,2.6c-0.4,1.2-0.7,2.4-1,3.7c1.6-0.4,3.1-0.8,4.6-1.2C8.6,28,8.8,28,8.9,28c0.3,0,0.5,0.1,0.7,0.2
					c2.2,1.2,4.4,1.9,6.8,1.9C17.2,30.1,17.9,30.1,18.7,29.9"/>
</svg>
